<?xml version="1.0" encoding="UTF-8" standalone="no"?>
<svg
   xmlns:dc="http://purl.org/dc/elements/1.1/"
   xmlns:cc="http://creativecommons.org/ns#"
   xmlns:rdf="http://www.w3.org/1999/02/22-rdf-syntax-ns#"
   xmlns:svg="http://www.w3.org/2000/svg"
   xmlns="http://www.w3.org/2000/svg"
   xmlns:sodipodi="http://sodipodi.sourceforge.net/DTD/sodipodi-0.dtd"
   xmlns:inkscape="http://www.inkscape.org/namespaces/inkscape"
   version="1.1"
   x="0px"
   y="0px"
   viewBox="0 0 100 125"
   id="svg10"
   sodipodi:docname="click-touch.svg"
   inkscape:version="0.92.4 (5da689c313, 2019-01-14)">
  <metadata
     id="metadata16">
    <rdf:RDF>
      <cc:Work
         rdf:about="">
        <dc:format>image/svg+xml</dc:format>
        <dc:type
           rdf:resource="http://purl.org/dc/dcmitype/StillImage" />
        <dc:title></dc:title>
      </cc:Work>
    </rdf:RDF>
  </metadata>
  <defs
     id="defs14" />
  <sodipodi:namedview
     pagecolor="#ffffff"
     bordercolor="#666666"
     borderopacity="1"
     objecttolerance="10"
     gridtolerance="10"
     guidetolerance="10"
     inkscape:pageopacity="0"
     inkscape:pageshadow="2"
     inkscape:window-width="3200"
     inkscape:window-height="1675"
     id="namedview12"
     showgrid="false"
     inkscape:zoom="7.552"
     inkscape:cx="54.639229"
     inkscape:cy="64.867566"
     inkscape:window-x="-13"
     inkscape:window-y="-13"
     inkscape:window-maximized="1"
     inkscape:current-layer="svg10" />
  <g
     transform="translate(0,-952.36218)"
     id="g4"
     style="fill:#ffffff">
    <path
       style="color:#000000;text-indent:0;text-transform:none;direction:ltr;baseline-shift:baseline;display:inline;overflow:visible;visibility:visible;fill:#ffffff;fill-opacity:1;stroke:none;enable-background:accumulate"
       d="m 43.494912,955.36219 c -1.1046,0 -2,0.8954 -2,2 v 12 c 0,1.1046 0.8954,2 2,2 1.1046,0 2,-0.8954 2,-2 v -12 c 0,-1.1046 -0.8954,-2 -2,-2 z m 23.125,13 c -0.3585,-0.01 -0.7348,0.088 -1.125,0.2812 l -10.4062,6 c -0.9566,0.5524 -1.2711,1.7622 -0.7188,2.7188 0.5523,0.9566 1.7621,1.271 2.7188,0.7188 l 10.4062,-6 c 0.9567,-0.5525 1.271,-1.7622 0.7188,-2.7188 -0.4518,-0.6748 -0.9963,-0.9856 -1.5938,-1 z m -46.3438,0.031 c -0.6184,0.064 -1.1285,0.4314 -1.5,0.9688 -0.5522,0.9566 -0.2379,2.1663 0.7188,2.7188 l 10.4062,6 c 0.9566,0.5522 2.1665,0.2378 2.7188,-0.7188 0.5523,-0.9566 0.2379,-2.1664 -0.7188,-2.7188 l -10.4062,-6 c -0.4313,-0.2257 -0.8477,-0.2881 -1.2188,-0.25 z m 23.2188,6.969 c -4.3974,0 -8,3.6026 -8,7.99999 v 25.53122 c -1.2386,-2.6772 -3.4613,-5.571 -6.25,-6.2812 -3.7941,-1.0301 -8.4416,2.0051 -9.5,5.5312 -0.5395,1.9655 -0.1878,4.2021 0.875,6.9376 5.1954,12.4928 11.5923,24.4869 19.375,33.5937 0.3721,0.4278 0.9331,0.6849 1.5,0.6875 h 27 c 0.4255,0 0.8484,-0.1491 1.1875,-0.4062 2.8787,-2.1326 5.1989,-5.7653 7.125,-10.0938 1.9261,-4.3285 3.4005,-9.3497 4.1563,-14.25 0.7559,-4.9003 0.7528,-9.489 -0.3126,-13.5625 -1.0282,-3.9315 -3.8019,-7.2034 -7.9374,-7.6875 -0.9748,0 -2.0043,0.081 -2.875,0.2812 -0.513,-1.2265 -1.232,-2.2725 -2.125,-2.9062 -1.4954,-1.06113 -3.0174,-1.39533 -4.25,-1.37503 -1.1834,0.02 -2.2626,0.4507 -3.2188,1.12503 -0.4303,-0.65663 -0.8728,-1.33992 -1.4375,-1.75003 -1.4826,-1.07669 -3.0599,-1.375 -4.3125,-1.375 -1.0361,0 -2.0389,0.2873 -3,0.6875 v -14.6875 c -0.085,-5.35279 -4.3066,-8.01029 -8,-7.99999 z m 0,4 c 2.2506,0 4,1.7494 4,3.99999 v 19.00002 c -0.013,0.9065 0.6789,1.766 1.5625,1.9688 0.8836,0.2028 1.8666,-0.2723 2.25,-1.0938 0.4418,-0.9185 2.1062,-1.875 3.1875,-1.875 0.4854,0 1.386,0.2017 1.9688,0.625 0.5829,0.4233 1.0312,0.9187 1.0312,2.375 0,0.8891 0.6666,1.7303 1.5312,1.9375 0.8647,0.2072 1.8453,-0.2396 2.25,-1.0313 0.8132,-1.6265 1.2489,-1.8894 2.25,-1.9062 0.2771,-0.01 1.2478,0.1799 1.875,0.625 0.6272,0.4451 1.0938,0.9567 1.0938,2.375 -0.01,0.7789 0.4733,1.5329 1.1875,1.8438 0.7143,0.3108 1.6218,0.1604 2.1875,-0.375 0.7584,-0.3739 1.5022,-0.4873 2.4688,-0.4688 2.3845,0.3033 3.6223,1.7976 4.4687,4.7812 0.8543,3.0111 0.8861,7.315 0.1875,11.8438 -0.6985,4.5288 -2.0792,9.2845 -3.8438,13.25 -1.6548,3.7191 -3.6815,6.6235 -5.4687,8.125 h -25.2187 c -7.0201,-8.2815 -13.724,-20.9983 -18.0938,-31.7188 -0.9097,-2.3414 -0.9917,-3.6859 -0.7812,-4.4374 0.7411,-1.9345 2.8149,-3.0266 4.5937,-2.75 2.1264,0.8008 2.6533,2.2197 3.5625,3.8437 l 3.9688,7.9687 c 0.4047,0.7917 1.3853,1.2385 2.25,1.0313 0.8647,-0.2072 1.5294,-1.0484 1.5312,-1.9375 v -34.00003 c 0,-2.25059 1.7494,-3.99999 4,-3.99999 z"
       marker="none"
       visibility="visible"
       display="inline"
       overflow="visible"
       id="path2"
       inkscape:connector-curvature="0" />
  </g>
</svg>
