<?xml version="1.0" encoding="UTF-8" standalone="no"?>
<!-- Generator: Adobe Illustrator 19.0.0, SVG Export Plug-In . SVG Version: 6.00 Build 0)  -->

<svg
   xmlns:dc="http://purl.org/dc/elements/1.1/"
   xmlns:cc="http://creativecommons.org/ns#"
   xmlns:rdf="http://www.w3.org/1999/02/22-rdf-syntax-ns#"
   xmlns:svg="http://www.w3.org/2000/svg"
   xmlns="http://www.w3.org/2000/svg"
   xmlns:sodipodi="http://sodipodi.sourceforge.net/DTD/sodipodi-0.dtd"
   xmlns:inkscape="http://www.inkscape.org/namespaces/inkscape"
   version="1.1"
   id="Capa_1"
   x="0px"
   y="0px"
   viewBox="0 0 47.971 47.971"
   style="enable-background:new 0 0 47.971 47.971;"
   xml:space="preserve"
   sodipodi:docname="close.svg"
   inkscape:version="0.92.4 (5da689c313, 2019-01-14)"><metadata
   id="metadata41"><rdf:RDF><cc:Work
       rdf:about=""><dc:format>image/svg+xml</dc:format><dc:type
         rdf:resource="http://purl.org/dc/dcmitype/StillImage" /></cc:Work></rdf:RDF></metadata><defs
   id="defs39" /><sodipodi:namedview
   pagecolor="#ffffff"
   bordercolor="#666666"
   borderopacity="1"
   objecttolerance="10"
   gridtolerance="10"
   guidetolerance="10"
   inkscape:pageopacity="0"
   inkscape:pageshadow="2"
   inkscape:window-width="3200"
   inkscape:window-height="1675"
   id="namedview37"
   showgrid="false"
   inkscape:zoom="4.9196389"
   inkscape:cx="23.9855"
   inkscape:cy="23.9855"
   inkscape:window-x="-13"
   inkscape:window-y="-13"
   inkscape:window-maximized="1"
   inkscape:current-layer="Capa_1" />
<g
   id="g4"
   style="fill:#ffffff">
	<path
   d="M 28.228,23.986 47.092,5.122 c 1.172,-1.171 1.172,-3.071 0,-4.242 -1.172,-1.172 -3.07,-1.172 -4.242,0 L 23.986,19.744 5.121,0.88 c -1.172,-1.172 -3.07,-1.172 -4.242,0 -1.172,1.171 -1.172,3.071 0,4.242 L 19.744,23.986 0.879,42.85 c -1.172,1.171 -1.172,3.071 0,4.242 0.586,0.585 1.354,0.878 2.121,0.878 0.767,0 1.535,-0.293 2.121,-0.879 L 23.986,28.227 42.85,47.091 c 0.586,0.586 1.354,0.879 2.121,0.879 0.767,0 1.535,-0.293 2.121,-0.879 1.172,-1.171 1.172,-3.071 0,-4.242 z"
   id="path2"
   inkscape:connector-curvature="0"
   style="fill:#ffffff" />
</g>
<g
   id="g6">
</g>
<g
   id="g8">
</g>
<g
   id="g10">
</g>
<g
   id="g12">
</g>
<g
   id="g14">
</g>
<g
   id="g16">
</g>
<g
   id="g18">
</g>
<g
   id="g20">
</g>
<g
   id="g22">
</g>
<g
   id="g24">
</g>
<g
   id="g26">
</g>
<g
   id="g28">
</g>
<g
   id="g30">
</g>
<g
   id="g32">
</g>
<g
   id="g34">
</g>
</svg>