<svg width="43" height="41" viewBox="0 0 43 41" fill="none" xmlns="http://www.w3.org/2000/svg">
<path d="M20.2837 40.9772C19.7426 40.9772 19.2015 40.9772 18.6604 40.9772C18.5442 40.9842 18.4278 40.966 18.3192 40.9236C18.2105 40.8812 18.1123 40.8157 18.0309 40.7315C17.9496 40.6473 17.8872 40.5464 17.8478 40.4358C17.8085 40.3251 17.7932 40.2071 17.8031 40.0899C17.8129 39.9727 17.8475 39.8591 17.9047 39.7566C17.9618 39.6542 18.0402 39.5653 18.1343 39.4961C18.2285 39.4269 18.3362 39.379 18.4504 39.3556C18.5645 39.3322 18.6822 39.3339 18.7957 39.3606H20.2837C20.4989 39.3606 20.7054 39.4469 20.8576 39.6006C21.0098 39.7544 21.0953 39.9628 21.0953 40.1802C21.0953 40.3976 21.0098 40.6062 20.8576 40.7599C20.7054 40.9136 20.4989 41 20.2837 41V40.9772Z" fill="black"/>
<path d="M16.4961 40.6128H16.3383C15.056 40.3618 13.802 39.9803 12.5957 39.4743C12.4943 39.4369 12.4017 39.3789 12.3234 39.3038C12.2451 39.2287 12.1829 39.1383 12.1406 39.0379C12.0984 38.9376 12.0769 38.8296 12.0777 38.7206C12.0784 38.6116 12.1012 38.5039 12.1448 38.4041C12.2292 38.2055 12.388 38.0486 12.5864 37.9675C12.7849 37.8865 13.007 37.8879 13.2045 37.9715C14.3202 38.4264 15.4748 38.7771 16.654 39.019C16.845 39.0648 17.013 39.179 17.1271 39.3404C17.2411 39.5019 17.2933 39.6996 17.274 39.8969C17.2548 40.0942 17.1653 40.2778 17.0223 40.4136C16.8793 40.5494 16.6923 40.6283 16.4961 40.6356V40.6128Z" fill="black"/>
<path d="M10.8147 38.518C10.6792 38.515 10.547 38.4756 10.4314 38.4041C7.56343 36.7938 5.12497 34.505 3.32504 31.734C1.5251 28.963 0.417421 25.7925 0.0969845 22.4943C-0.223452 19.196 0.252903 15.8685 1.48521 12.797C2.71752 9.72556 4.669 7.00177 7.17236 4.85914C9.67572 2.71651 12.6563 1.21895 15.8584 0.494968C19.0606 -0.229013 22.3888 -0.157843 25.5578 0.702323C28.7267 1.56249 31.6418 3.18599 34.0532 5.43367C36.4645 7.68135 38.3002 10.4862 39.4027 13.6076L42.0631 13.1294C42.2164 13.107 42.3727 13.1268 42.5156 13.1869C42.6585 13.2471 42.7827 13.3453 42.8748 13.4709C42.9566 13.6043 43 13.758 43 13.9149C43 14.0718 42.9566 14.2256 42.8748 14.3589L38.3656 22.1008C38.245 22.2845 38.0595 22.4148 37.847 22.4651C37.7405 22.4984 37.6275 22.5054 37.5177 22.4856C37.4079 22.4658 37.3044 22.4197 37.2158 22.3513L29.9335 17.4557C29.8067 17.3747 29.7054 17.2587 29.6415 17.1216C29.5776 16.9845 29.5538 16.8319 29.5728 16.6815C29.588 16.5303 29.6446 16.3863 29.7361 16.2657C29.8277 16.1451 29.9507 16.0525 30.0913 15.9984L32.9321 14.951C31.7357 12.1721 29.6778 9.86094 27.0682 8.36561C24.4586 6.87028 21.4386 6.27167 18.463 6.66001C15.4873 7.04835 12.7172 8.40261 10.5696 10.5188C8.42211 12.635 7.01348 15.3985 6.55587 18.3933C6.09827 21.388 6.61646 24.4519 8.03241 27.1235C9.44836 29.795 11.6854 31.9296 14.4067 33.2059C17.128 34.4821 20.1862 34.831 23.1207 34.1997C26.0553 33.5685 28.7073 31.9914 30.6775 29.706C30.7529 29.6296 30.8425 29.5689 30.9412 29.5276C31.0398 29.4862 31.1456 29.4649 31.2524 29.4649C31.3592 29.4649 31.465 29.4862 31.5637 29.5276C31.6623 29.5689 31.7519 29.6296 31.8273 29.706C31.9748 29.8626 32.0571 30.0704 32.0571 30.2866C32.0571 30.5027 31.9748 30.7106 31.8273 30.8672C29.5838 33.4335 26.5676 35.1843 23.2426 35.8503C19.9177 36.5164 16.4681 36.0608 13.4246 34.5537C10.381 33.0465 7.91198 30.5713 6.39724 27.5086C4.88251 24.446 4.40595 20.9656 5.04087 17.6027C5.6758 14.2399 7.38703 11.1809 9.91138 8.89609C12.4357 6.61131 15.6334 5.22731 19.0126 4.95705C22.3917 4.68679 25.7652 5.54524 28.6141 7.40027C31.4631 9.2553 33.6297 12.0042 34.7808 15.2242C34.8541 15.4266 34.8455 15.65 34.7568 15.846C34.6682 16.042 34.5068 16.1949 34.3074 16.2716L32.1881 17.0686L37.4187 20.5752L40.5751 15.1331L38.9518 15.4064C38.7583 15.4442 38.5578 15.4096 38.3877 15.309C38.2176 15.2084 38.0895 15.0488 38.0274 14.8599C37.1174 11.9188 35.5075 9.24779 33.3386 7.08062C31.1697 4.91346 28.5079 3.31617 25.5862 2.42863C22.6645 1.54109 19.5719 1.39034 16.5792 1.98953C13.5864 2.58872 10.7846 3.91958 8.41912 5.86568C6.05362 7.81179 4.19646 10.3138 3.01019 13.1527C1.82392 15.9916 1.3447 19.0809 1.61446 22.1502C1.88422 25.2195 2.89477 28.1753 4.55763 30.7588C6.22048 33.3423 8.48495 35.4747 11.1529 36.9696C11.2485 37.0195 11.333 37.0887 11.4011 37.1728C11.4693 37.2569 11.5197 37.3542 11.5493 37.4587C11.5788 37.5632 11.5869 37.6727 11.573 37.7805C11.5592 37.8882 11.5236 37.992 11.4685 38.0854C11.408 38.2101 11.3154 38.3161 11.2003 38.3922C11.0853 38.4683 10.9521 38.5118 10.8147 38.518Z" fill="black"/>
<path d="M27.814 28.8863C27.7098 28.8878 27.6064 28.8684 27.5097 28.8293C27.4129 28.7903 27.3248 28.7322 27.2504 28.6585L19.6975 21.0306C19.5579 20.8739 19.478 20.6721 19.4721 20.4613V12.4235C19.4721 12.2061 19.5576 11.9976 19.7098 11.8439C19.862 11.6901 20.0685 11.6038 20.2838 11.6038C20.499 11.6038 20.7055 11.6901 20.8577 11.8439C21.0099 11.9976 21.0954 12.2061 21.0954 12.4235V20.1198L28.4002 27.4973C28.4759 27.5735 28.5359 27.664 28.5769 27.7636C28.6179 27.8632 28.639 27.97 28.639 28.0779C28.639 28.1858 28.6179 28.2926 28.5769 28.3923C28.5359 28.4919 28.4759 28.5824 28.4002 28.6585C28.2416 28.8087 28.0313 28.8904 27.814 28.8863Z" fill="black"/>
</svg>
